<?xml version="1.0" encoding="UTF-8" standalone="no"?><!DOCTYPE svg PUBLIC "-//W3C//DTD SVG 1.1//EN" "http://www.w3.org/Graphics/SVG/1.1/DTD/svg11.dtd"><svg width="100%" height="100%" viewBox="0 0 1191 842" version="1.1" xmlns="http://www.w3.org/2000/svg" xmlns:xlink="http://www.w3.org/1999/xlink" xml:space="preserve" xmlns:serif="http://www.serif.com/" style="fill-rule:evenodd;clip-rule:evenodd;stroke-linecap:round;stroke-linejoin:round;stroke-miterlimit:1.5;"><rect id="Plan-de-travail1" serif:id="Plan de travail1" x="0" y="0" width="1190.55" height="841.89" style="fill:none;"/><clipPath id="_clip1"><rect id="Plan-de-travail11" serif:id="Plan de travail1" x="0" y="0" width="1190.55" height="841.89"/></clipPath><g clip-path="url(#_clip1)"><text x="931.065px" y="67.571px" style="font-family:'ArialMT', 'Arial', sans-serif;font-size:12px;fill:#008886;">Cahier d’activités pour créer vos tiers-lieux</text><text x="34.289px" y="64.905px" style="font-family:'Arial-BoldMT', 'Arial', sans-serif;font-weight:700;font-size:24px;fill:#008886;">#1 LE TERRIT<tspan x="191.215px 209.883px " y="64.905px 64.905px ">OI</tspan>RE (1/2)</text><circle cx="347.109" cy="483.816" r="12.891" style="fill:#fff;"/><g><path d="M68.479,783.189c-3.794,-3.967 -8.453,-5.864 -14.143,-5.691c-5.522,0 -10.177,1.895 -13.972,5.691c-3.967,3.966 -5.864,8.624 -5.864,14.145c0,5.347 1.897,10.002 5.864,13.97c3.967,3.969 8.624,5.866 13.972,5.866c5.518,0 10.176,-1.897 14.143,-5.866c3.795,-3.793 5.693,-8.451 5.693,-13.97c0,-5.521 -1.898,-10.35 -5.693,-14.145m-2.415,25.528c-3.277,3.277 -7.072,4.831 -11.556,4.831c-4.313,0 -8.108,-1.554 -11.383,-4.831c-3.279,-3.103 -4.831,-6.899 -4.831,-11.383c0,-4.485 1.552,-8.279 4.831,-11.557c3.102,-3.276 7.07,-4.832 11.554,-4.832c4.484,0 8.282,1.726 11.385,4.832c3.105,3.103 4.659,7.072 4.659,11.557c0,4.484 -1.554,8.28 -4.659,11.383" style="fill:#00bab7;fill-rule:nonzero;"/><path d="M51.748,795.263c-0.518,-1.035 -1.208,-1.551 -2.242,-1.551c-1.726,0 -2.588,1.207 -2.588,3.622c0,2.415 0.862,3.621 2.588,3.621c1.206,0 1.895,-0.517 2.415,-1.724l2.415,1.381c-1.21,2.068 -2.935,3.104 -5.175,3.104c-1.724,0 -3.278,-0.517 -4.312,-1.726c-1.036,-1.035 -1.553,-2.586 -1.553,-4.485c0,-1.897 0.517,-3.449 1.724,-4.484c1.036,-1.034 2.417,-1.726 4.141,-1.726c2.414,0 4.14,1.035 5.175,2.933c0,-0.344 -2.588,1.035 -2.588,1.035" style="fill:#00bab7;fill-rule:nonzero;"/><path d="M63.132,795.263c-0.519,-1.035 -1.207,-1.551 -2.244,-1.551c-1.724,0 -2.587,1.207 -2.587,3.622c0,2.415 0.863,3.621 2.587,3.621c1.21,0 1.898,-0.517 2.417,-1.724l2.415,1.381c-1.208,2.068 -2.934,3.104 -5.175,3.104c-1.725,0 -3.278,-0.517 -4.312,-1.726c-1.034,-1.035 -1.553,-2.586 -1.553,-4.485c0,-1.897 0.519,-3.449 1.553,-4.484c1.034,-1.034 2.415,-1.726 4.14,-1.726c2.413,0 4.139,1.035 5.174,2.933c0.173,-0.344 -2.415,1.035 -2.415,1.035" style="fill:#00bab7;fill-rule:nonzero;"/><path d="M180.856,783.288c-3.713,-3.944 -8.353,-5.801 -13.925,-5.801c-5.57,0 -9.98,1.857 -13.925,5.801c-3.945,3.945 -5.802,8.587 -5.802,14.156c0,5.339 1.857,10.214 5.802,13.926c3.945,3.945 8.585,5.8 13.925,5.8c5.337,0 10.212,-1.855 14.156,-5.8c3.713,-3.712 5.571,-8.354 5.571,-13.926c0,-5.569 -1.858,-10.211 -5.802,-14.156m-2.552,25.527c-3.25,3.253 -7.196,4.875 -11.604,4.875c-4.411,0 -8.123,-1.622 -11.373,-4.875c-3.25,-3.25 -4.873,-6.961 -4.873,-11.371c0,-4.408 1.623,-8.354 4.873,-11.603c3.25,-3.247 7.194,-4.872 11.604,-4.872c4.41,0 8.354,1.625 11.373,4.872c3.247,3.249 4.641,6.961 4.641,11.603c0,4.642 -1.627,8.357 -4.641,11.371" style="fill:#00bab7;fill-rule:nonzero;"/><path d="M158.111,794.427c0.697,-5.105 4.179,-7.658 8.589,-7.658c6.265,0 10.21,4.643 10.21,10.675c0,6.035 -4.177,10.678 -10.21,10.678c-4.179,0 -8.122,-2.556 -8.82,-7.658l4.872,0c0.233,2.782 1.858,3.712 4.411,3.712c2.785,0 4.64,-2.553 4.64,-6.732c0,-4.177 -1.622,-6.497 -4.64,-6.497c-2.09,0 -3.945,0.695 -4.411,3.48l1.394,0l-3.946,3.946l-3.944,-3.946l1.855,0Z" style="fill:#00bab7;fill-rule:nonzero;"/><path d="M110.408,784.448c1.628,0 2.788,1.16 2.788,2.785c0,1.625 -1.16,2.786 -2.788,2.786c-1.622,0 -2.783,-1.161 -2.783,-2.786c0,-1.393 1.161,-2.785 2.783,-2.785" style="fill:#00bab7;fill-rule:nonzero;"/><path d="M115.866,792.34c0,-0.698 -0.467,-1.392 -1.393,-1.392l-8.123,0c-0.696,0 -1.394,0.463 -1.394,1.392l0,8.124l2.32,0l0,9.513l6.036,0l0,-9.513l2.321,0c0.233,0 0.233,-8.124 0.233,-8.124" style="fill:#00bab7;fill-rule:nonzero;"/><path d="M124.451,783.288c-3.712,-3.944 -8.354,-5.801 -13.925,-5.801c-5.57,0 -9.979,1.857 -13.924,5.801c-3.943,3.945 -5.802,8.587 -5.802,14.156c0,5.339 1.859,10.214 5.802,13.926c3.945,3.945 8.587,5.8 13.924,5.8c5.34,0 10.213,-1.855 14.155,-5.8c3.716,-3.712 5.572,-8.354 5.572,-13.926c0,-5.569 -1.856,-10.211 -5.802,-14.156m-2.32,25.527c-3.25,3.253 -7.195,4.875 -11.605,4.875c-4.41,0 -8.122,-1.622 -11.372,-4.875c-3.248,-3.25 -4.873,-6.961 -4.873,-11.371c0,-4.408 1.625,-8.354 4.873,-11.603c3.25,-3.247 6.962,-4.872 11.603,-4.872c4.411,0 8.357,1.625 11.374,4.872c3.25,3.249 4.64,6.961 4.64,11.603c0,4.642 -1.622,8.357 -4.64,11.371" style="fill:#00bab7;fill-rule:nonzero;"/><path d="M243.113,797.327c0,10.959 -8.885,19.842 -19.842,19.842c-10.96,0 -19.843,-8.883 -19.843,-19.842c0,-10.958 8.883,-19.842 19.843,-19.842c10.957,0 19.842,8.884 19.842,19.842" style="fill:#00bab7;fill-rule:nonzero;"/><path d="M212.046,797.989l-0.002,-0.049c-0.007,-0.06 -0.028,-0.088 -0.061,-0.119l-0.74,-0.742c-0.066,-0.062 -0.102,-0.091 -0.15,-0.091c-0.05,0 -0.085,0.029 -0.152,0.091l-0.74,0.742c-0.032,0.031 -0.053,0.059 -0.061,0.119l-0.003,0.049l0,9.586c0,0.097 0.023,0.13 0.064,0.17l0.74,0.739c0.067,0.063 0.102,0.095 0.152,0.095c0.048,0 0.084,-0.032 0.15,-0.095l0.74,-0.739c0.04,-0.04 0.063,-0.073 0.063,-0.17l0,-6.99l0,-2.596Z" style="fill:#fff;fill-rule:nonzero;"/><path d="M213.089,804.07l0.741,0.741c0.062,0.066 0.093,0.102 0.093,0.151c0,0.05 -0.031,0.085 -0.093,0.152l-0.741,0.74l-0.063,0.062c2.501,0 4.535,-2.033 4.535,-4.534c0,-0.813 -0.214,-1.577 -0.591,-2.238l-0.001,0c-0.593,-1.042 -1.588,-1.829 -2.774,-2.144c-0.094,-0.024 -0.131,-0.01 -0.18,0.017l-0.906,0.525c-0.077,0.049 -0.116,0.074 -0.129,0.123c-0.012,0.047 0.009,0.089 0.051,0.169l0.524,0.906c0.029,0.049 0.054,0.08 0.148,0.105c0.686,0.183 1.26,0.637 1.605,1.24l0.001,0l-0.001,0c0.219,0.382 0.344,0.825 0.344,1.297c0,1.448 -1.178,2.626 -2.626,2.626l0.063,0.062Z" style="fill:#fff;fill-rule:nonzero;"/><path d="M223.42,792.243l-0.002,0l0.002,0.001l0,-0.001Z" style="fill:#fff;"/><path d="M227.974,795.273l-0.741,-0.74c-0.066,-0.063 -0.1,-0.094 -0.15,-0.094c-0.05,0 -0.085,0.031 -0.152,0.094l-0.74,0.74l-0.063,0.064l0,-0.079c0,-1.447 -1.178,-2.626 -2.626,-2.626c-1.447,0 -2.625,1.179 -2.625,2.626l0,0.786c0,0.097 -0.025,0.13 -0.063,0.168l-0.742,0.742c-0.065,0.062 -0.101,0.092 -0.15,0.092c-0.05,0 -0.085,-0.03 -0.152,-0.092l-0.74,-0.742c-0.039,-0.038 -0.063,-0.071 -0.063,-0.168l0,-0.786c0,-2.499 2.035,-4.535 4.535,-4.535c2.5,0 4.535,2.036 4.535,4.535l0,0.079l-0.063,-0.064Z" style="fill:#fff;fill-rule:nonzero;"/><path d="M219.03,797.783l0.74,0.742c0.067,0.061 0.102,0.092 0.152,0.092c0.05,0 0.084,-0.031 0.151,-0.092l0.74,-0.742l0.063,-0.064l0,0.079c0,1.447 1.178,2.626 2.626,2.626c1.448,0 2.626,-1.179 2.626,-2.626l0,-0.787c0,-0.096 0.023,-0.128 0.062,-0.167l0.741,-0.742c0.066,-0.062 0.102,-0.092 0.151,-0.092c0.05,0 0.085,0.03 0.152,0.092l0.74,0.742c0.04,0.039 0.063,0.071 0.063,0.167l0,0.787c0,2.501 -2.035,4.535 -4.535,4.535c-2.501,0 -4.535,-2.034 -4.535,-4.535l0,-0.079l0.063,0.064Z" style="fill:#fff;fill-rule:nonzero;"/><path d="M232.239,787.102l0,-0.001l-0.002,-0.05c-0.009,-0.058 -0.029,-0.086 -0.061,-0.118l-0.74,-0.74c-0.067,-0.063 -0.102,-0.093 -0.15,-0.093c-0.05,0 -0.085,0.03 -0.152,0.093l-0.742,0.74c-0.03,0.032 -0.052,0.06 -0.059,0.118l-0.003,0.051l0,9.587c0,0.096 0.023,0.129 0.062,0.169l0.742,0.74c0.067,0.063 0.102,0.092 0.152,0.092c0.048,0 0.083,-0.029 0.15,-0.092l0.74,-0.74c0.039,-0.04 0.063,-0.073 0.063,-0.169l0,-6.99l0,-2.597Z" style="fill:#fff;fill-rule:nonzero;"/><path d="M233.282,787.946l0.74,-0.74c0.063,-0.067 0.093,-0.102 0.093,-0.152c0,-0.049 -0.03,-0.085 -0.093,-0.15l-0.74,-0.742l-0.063,-0.061c2.501,0 4.535,2.034 4.535,4.533c0,0.814 -0.215,1.577 -0.591,2.238l0,0.002c-0.595,1.042 -1.591,1.827 -2.776,2.144l0,-0.001c-0.093,0.025 -0.131,0.011 -0.178,-0.017l-0.908,-0.526c-0.076,-0.047 -0.115,-0.074 -0.127,-0.121c-0.014,-0.049 0.007,-0.09 0.049,-0.17l0.526,-0.907c0.028,-0.048 0.053,-0.078 0.146,-0.104c0.685,-0.182 1.262,-0.637 1.606,-1.24c0.219,-0.384 0.344,-0.825 0.344,-1.298c0,-1.447 -1.179,-2.624 -2.626,-2.624l0.063,-0.064Z" style="fill:#fff;fill-rule:nonzero;"/><path d="M285.522,777.486c-1.697,0 -3.248,0.664 -4.363,1.765c0.42,0.364 0.9,0.773 1.336,1.13c0.786,-0.742 1.857,-1.188 3.027,-1.188c2.39,0 4.336,1.876 4.336,4.18c0,1.133 -0.441,2.157 -1.273,2.96l-8.141,7.862l-6.733,-6.502c-0.625,0.206 -1.269,0.375 -1.993,0.49l8.1,7.823c0.166,0.16 0.446,0.356 0.626,0.356c0.188,0 0.461,-0.196 0.626,-0.356l8.766,-8.466c1.171,-1.131 1.791,-2.571 1.791,-4.167c0,-3.246 -2.739,-5.887 -6.105,-5.887" style="fill:#8ad2d1;fill-rule:nonzero;"/><path d="M294.24,786.935c-0.825,-0.135 -1.606,-0.295 -2.36,-0.482c-0.444,0.715 -0.692,1.024 -1.124,1.476c0.615,0.171 1.245,0.324 1.896,0.455c-0.089,0.133 -0.176,0.267 -0.262,0.398c-2.936,4.443 -4.903,7.422 -1.985,13.119c-0.6,0.648 -1.509,1.279 -2.668,1.849c-1.666,-0.632 -3.168,-0.951 -4.47,-0.951c-2.575,0 -3.989,1.245 -4.552,2.611c-4.37,-0.381 -7.075,-2.52 -8.061,-3.451c1.989,-3.117 2.498,-6.03 1.511,-8.665c-1.057,-2.828 -3.672,-4.381 -5.233,-5.05c-0.024,-0.245 -0.059,-0.752 -0.102,-1.035c0.84,0.144 1.675,0.218 2.496,0.218c3.735,0 7.355,-1.543 10.559,-4.479c-0.395,-0.295 -0.837,-0.667 -1.335,-1.128c-2.854,2.588 -5.95,3.9 -9.224,3.901c-1.095,0 -2.225,-0.15 -3.356,-0.448c-0.296,-0.076 -0.785,-0.194 -1.015,0.014c-0.222,0.2 -0.145,0.687 -0.085,0.977c0.176,0.849 0.317,2.18 0.331,2.581c0.019,0.587 0.069,0.629 0.631,0.818c0.659,0.223 3.603,1.36 4.668,4.21c0.846,2.258 0.271,4.85 -1.698,7.711c-0.326,0.474 -0.311,0.559 0.044,1.002c0.142,0.176 3.598,4.261 10.476,4.574c0.819,0.038 0.775,-0.042 0.909,-0.694c0.255,-1.244 1.352,-1.961 3.036,-1.961c1.165,0 2.561,0.337 4.165,0.968c0.342,0.135 0.391,0.135 0.723,-0.018c1.871,-0.858 3.223,-1.86 4.021,-2.965c0.288,-0.398 0.283,-0.478 0.058,-0.888c-2.824,-5.142 -1.324,-7.405 1.648,-11.904c0.309,-0.467 0.63,-0.956 0.964,-1.47c0.365,-0.561 0.423,-1.126 -0.606,-1.293" style="fill:#00bab7;fill-rule:nonzero;"/><path d="M271.227,784.618c-0.128,-0.398 -0.196,-0.815 -0.196,-1.244c0,-2.306 1.944,-4.181 4.335,-4.181c0.988,0 1.905,0.315 2.642,0.865c1.507,1.177 2.155,1.89 3.328,2.851c1.849,1.517 3.78,2.746 5.699,3.647c0.336,-0.342 0.786,-0.815 1.251,-1.318c-2.036,-0.894 -4.245,-2.339 -6.049,-3.83c-0.991,-0.82 -2.222,-1.907 -2.6,-2.244l0,-0.001c-1.108,-1.047 -2.62,-1.677 -4.271,-1.677c-3.366,0 -6.104,2.642 -6.104,5.888c0,0.478 0.059,0.947 0.173,1.4c0.58,0.002 1.208,-0.053 1.792,-0.156" style="fill:#00bab7;fill-rule:nonzero;"/><path d="M260.538,810.186l0,-0.703l0.737,0c0.147,0 0.24,0.114 0.24,0.362c0,0.243 -0.105,0.341 -0.249,0.341l-0.728,0Zm0.929,-1.24l-1.584,0l0,2.735l0.655,0l0,-0.977l0.294,0c0.175,0 0.377,0.232 0.818,0.977l0.818,0c-0.529,-0.859 -0.742,-1.107 -0.932,-1.173c0.536,-0.028 0.707,-0.369 0.707,-0.761c0,-0.452 -0.195,-0.801 -0.776,-0.801" style="fill:#8ad2d1;fill-rule:nonzero;"/><path d="M263.322,810.41c0.036,-0.255 0.117,-0.338 0.378,-0.338c0.244,0 0.338,0.059 0.346,0.338l-0.724,0Zm0.333,-0.793c-0.598,0 -0.98,0.239 -0.98,1.048c0,0.824 0.436,1.071 1.022,1.071c0.235,0 0.545,-0.042 0.752,-0.109l-0.093,-0.46c-0.154,0.039 -0.427,0.067 -0.578,0.067c-0.302,0 -0.453,-0.059 -0.46,-0.381l1.273,0c0.058,-1.032 -0.244,-1.236 -0.936,-1.236m0.77,-0.672l-0.64,0l-0.5,0.507l0.529,0l0.611,-0.507Z" style="fill:#8ad2d1;fill-rule:nonzero;"/><path d="M265.946,811.218c-0.292,0 -0.378,-0.114 -0.378,-0.537c0,-0.515 0.098,-0.585 0.395,-0.585c0.094,0 0.22,0.015 0.317,0.054l0,0.926c0,0.088 -0.15,0.142 -0.334,0.142m0.017,-1.602c-0.708,0 -1.026,0.256 -1.026,1.077c0,0.812 0.302,1.031 0.838,1.031c0.204,0 0.383,-0.054 0.505,-0.113c0,0.291 -0.199,0.373 -0.537,0.373c-0.215,0 -0.423,-0.035 -0.639,-0.091l-0.11,0.471c0.192,0.067 0.493,0.118 0.762,0.118c0.659,0 1.152,-0.157 1.152,-0.962l0,-1.762c-0.229,-0.082 -0.619,-0.142 -0.945,-0.142" style="fill:#8ad2d1;fill-rule:nonzero;"/><path d="M268.071,809.672l-0.627,0l0,2.01l0.627,0l0,-2.01Zm-0.313,-0.872c-0.269,0 -0.355,0.04 -0.355,0.287c0,0.271 0.086,0.318 0.355,0.318c0.264,0 0.353,-0.047 0.353,-0.318c0,-0.247 -0.089,-0.287 -0.353,-0.287" style="fill:#8ad2d1;fill-rule:nonzero;"/><path d="M269.527,811.265c-0.292,0 -0.378,-0.082 -0.378,-0.588c0,-0.526 0.086,-0.589 0.378,-0.589c0.298,0 0.383,0.063 0.383,0.589c0,0.506 -0.085,0.588 -0.383,0.588m0,-1.648c-0.662,0 -1.009,0.227 -1.009,1.048c0,0.824 0.338,1.071 1.009,1.071c0.68,0 1.019,-0.247 1.019,-1.071c0,-0.821 -0.343,-1.048 -1.019,-1.048" style="fill:#8ad2d1;fill-rule:nonzero;"/><path d="M272.059,809.617c-0.374,0 -0.789,0.086 -1.058,0.181l0,1.883l0.626,0l0,-1.491c0.102,-0.024 0.196,-0.036 0.297,-0.036c0.306,0 0.367,0.099 0.367,0.464l0,1.063l0.627,0l0,-1.11c0,-0.722 -0.285,-0.954 -0.859,-0.954" style="fill:#8ad2d1;fill-rule:nonzero;"/><path d="M260.76,817.092l-0.863,0l0,-3.598l0.863,0l0,1.312l1.404,0l0,-1.312l0.863,0l0,3.598l-0.863,0l0,-1.518l-1.404,0l0,1.518Z" style="fill:#00bab7;fill-rule:nonzero;"/><path d="M266.19,816.958c-0.37,0.129 -0.901,0.206 -1.302,0.206c-0.907,0 -1.174,-0.185 -1.174,-0.877c0,-0.743 0.418,-0.862 1.072,-0.862c0.204,0 0.412,0.026 0.621,0.067c0,-0.366 -0.085,-0.47 -0.621,-0.47c-0.317,0 -0.622,0.058 -0.852,0.124l-0.129,-0.63c0.316,-0.077 0.772,-0.139 1.179,-0.139c0.82,0 1.206,0.243 1.206,1.028l0,1.553Zm-1.238,-0.382c0.155,0 0.326,-0.026 0.455,-0.072l0,-0.501c-0.122,-0.03 -0.278,-0.036 -0.444,-0.036c-0.295,0 -0.403,0.031 -0.403,0.295c0,0.268 0.07,0.314 0.392,0.314" style="fill:#00bab7;fill-rule:nonzero;"/><path d="M268.548,814.45l0.815,0l0,2.483c-0.349,0.118 -0.901,0.237 -1.388,0.237c-0.76,0 -1.126,-0.31 -1.126,-1.254l0,-1.466l0.815,0l0,1.404c0,0.474 0.086,0.609 0.487,0.609c0.135,0 0.253,-0.021 0.397,-0.052l0,-1.961Z" style="fill:#00bab7;fill-rule:nonzero;"/><path d="M271.03,815.131l0,0.985c0,0.27 0.08,0.378 0.37,0.378c0.171,0 0.311,-0.032 0.439,-0.073l0.134,0.609c-0.204,0.083 -0.53,0.135 -0.825,0.135c-0.606,0 -0.943,-0.175 -0.943,-0.965l0,-1.069l-0.446,0l0,-0.681l0.446,0l0,-0.393l0.825,-0.319l0,0.712l0.857,0l0,0.681l-0.857,0Z" style="fill:#00bab7;fill-rule:nonzero;"/><path d="M274.198,815.11c-0.215,-0.057 -0.531,-0.114 -0.81,-0.114c-0.257,0 -0.386,0.021 -0.386,0.228c0,0.139 0.076,0.175 0.499,0.227c0.637,0.078 0.921,0.263 0.921,0.805c0,0.718 -0.535,0.909 -1.227,0.909c-0.295,0 -0.723,-0.057 -0.975,-0.145l0.161,-0.598c0.204,0.056 0.508,0.108 0.777,0.108c0.321,0 0.472,-0.025 0.472,-0.233c0,-0.144 -0.091,-0.2 -0.548,-0.243c-0.572,-0.051 -0.878,-0.211 -0.878,-0.774c0,-0.717 0.53,-0.903 1.217,-0.903c0.295,0 0.68,0.057 0.938,0.146l-0.161,0.587Z" style="fill:#00bab7;fill-rule:nonzero;"/><rect x="274.744" y="815.245" width="1.409" height="0.758" style="fill:#00bab7;"/><path d="M279.14,816.979c-0.301,0.108 -0.815,0.185 -1.244,0.185c-0.932,0 -1.35,-0.319 -1.35,-1.404c0,-1.063 0.482,-1.383 1.163,-1.383c0.268,0 0.45,0.052 0.605,0.114l0,-1.125l0.826,0l0,3.613Zm-0.826,-1.755c0,-0.114 -0.188,-0.202 -0.428,-0.202c-0.386,0 -0.51,0.166 -0.51,0.729c0,0.639 0.129,0.748 0.52,0.748c0.139,0 0.316,-0.021 0.418,-0.063l0,-1.212Z" style="fill:#00bab7;fill-rule:nonzero;"/><path d="M282.077,817.02c-0.273,0.088 -0.681,0.145 -0.992,0.145c-0.772,0 -1.346,-0.326 -1.346,-1.409c0,-1.063 0.505,-1.379 1.293,-1.379c0.911,0 1.307,0.269 1.233,1.626l-1.679,0c0.011,0.424 0.209,0.501 0.606,0.501c0.199,0 0.558,-0.036 0.761,-0.088l0.124,0.604Zm-1.484,-1.599l0.953,0c-0.011,-0.367 -0.134,-0.445 -0.456,-0.445c-0.342,0 -0.45,0.108 -0.497,0.445" style="fill:#00bab7;fill-rule:nonzero;"/><rect x="282.618" y="815.245" width="1.41" height="0.758" style="fill:#00bab7;"/><path d="M287.335,813.495l0,0.728l-1.86,0l0,0.836l1.377,0l0,0.712l-1.377,0l0,1.322l-0.863,0l0,-3.598l2.723,0Z" style="fill:#00bab7;fill-rule:nonzero;"/><path d="M287.689,814.45l0.825,0l0,0.206c0.091,-0.155 0.268,-0.279 0.665,-0.279c0.08,0 0.177,0.006 0.273,0.016l0,0.737c-0.107,-0.03 -0.251,-0.041 -0.386,-0.041c-0.295,0 -0.552,0.094 -0.552,0.27l0,1.734l-0.825,0l0,-2.643Z" style="fill:#00bab7;fill-rule:nonzero;"/><path d="M292.186,816.958c-0.37,0.129 -0.901,0.206 -1.302,0.206c-0.907,0 -1.174,-0.185 -1.174,-0.877c0,-0.743 0.418,-0.862 1.072,-0.862c0.204,0 0.412,0.026 0.621,0.067c0,-0.366 -0.085,-0.47 -0.621,-0.47c-0.316,0 -0.622,0.058 -0.852,0.124l-0.129,-0.63c0.316,-0.077 0.772,-0.139 1.178,-0.139c0.821,0 1.207,0.243 1.207,1.028l0,1.553Zm-1.238,-0.382c0.155,0 0.326,-0.026 0.455,-0.072l0,-0.501c-0.123,-0.03 -0.278,-0.036 -0.444,-0.036c-0.295,0 -0.403,0.031 -0.403,0.295c0,0.268 0.07,0.314 0.392,0.314" style="fill:#00bab7;fill-rule:nonzero;"/><path d="M293.692,817.092l-0.825,0l0,-2.478c0.353,-0.123 0.9,-0.238 1.393,-0.238c0.756,0 1.131,0.306 1.131,1.255l0,1.461l-0.825,0l0,-1.399c0,-0.479 -0.08,-0.609 -0.482,-0.609c-0.135,0 -0.258,0.016 -0.392,0.047l0,1.961Z" style="fill:#00bab7;fill-rule:nonzero;"/><path d="M298.189,817.031c-0.22,0.087 -0.59,0.134 -0.863,0.134c-0.819,0 -1.367,-0.325 -1.367,-1.41c0,-1.073 0.553,-1.379 1.367,-1.379c0.284,0 0.648,0.043 0.863,0.115l-0.171,0.671c-0.156,-0.057 -0.397,-0.108 -0.623,-0.108c-0.4,0 -0.606,0.066 -0.606,0.717c0,0.62 0.206,0.712 0.606,0.712c0.237,0 0.467,-0.057 0.623,-0.119l0.171,0.667Z" style="fill:#00bab7;fill-rule:nonzero;"/><path d="M300.826,817.02c-0.273,0.088 -0.681,0.145 -0.992,0.145c-0.771,0 -1.344,-0.326 -1.344,-1.409c0,-1.063 0.503,-1.379 1.291,-1.379c0.911,0 1.307,0.269 1.233,1.626l-1.678,0c0.01,0.424 0.21,0.501 0.605,0.501c0.199,0 0.558,-0.036 0.762,-0.088l0.123,0.604Zm-1.484,-1.599l0.954,0c-0.011,-0.367 -0.135,-0.445 -0.456,-0.445c-0.343,0 -0.451,0.108 -0.498,0.445" style="fill:#00bab7;fill-rule:nonzero;"/></g><path d="M34.5,757.806l1122.56,0" style="fill:none;stroke:#808080;stroke-width:0.4px;"/><path d="M33.995,83.033l1122.56,0" style="fill:none;stroke:#808080;stroke-width:0.4px;"/><g transform="matrix(0.24,0,0,0.24,0,16.6292)"><text x="1413.94px" y="3275.34px" style="font-family:'ArialMT', 'Arial', sans-serif;font-size:50px;fill:#008886;">Ce travail est mis à disposition sous licence Creative Commons (CC BY<tspan x="2998.8px 3015.45px 3048.8px 3079.39px 3093.28px " y="3275.34px 3275.34px 3275.34px 3275.34px 3275.34px ">-SA 4</tspan>.0).</text><text x="1413.94px" y="3326.98px" style="font-family:'ArialMT', 'Arial', sans-serif;font-size:50px;fill:#008886;">Télécharger<tspan x="1677.98px 1691.87px " y="3326.98px 3326.98px ">, </tspan>partager<tspan x="1889.23px 1903.12px " y="3326.98px 3326.98px ">, </tspan>contribuer à ce document : https://github.com/le-poplab/cahier-activite-tiers-lieux</text></g><text x="422.557px" y="138.641px" style="font-family:'Montserrat-SemiBold', 'Montserrat';font-weight:600;font-size:24px;">Les dynamiques desc<tspan x="680.413px " y="138.641px ">e</tspan>ndantes</text><g transform="matrix(0.999994,-0.00354677,0.00354677,0.999994,-0.492721,3.12547)"><text x="941.923px" y="207.07px" style="font-family:'ArialMT', 'Arial', sans-serif;font-size:10.824px;">on a repéré ...</text></g><g transform="matrix(0.24,0,0,0.24,354.129,115.775)"><text x="100.582px" y="332.324px" style="font-family:'Montserrat-Medium', 'Montserrat';font-weight:500;font-size:58.333px;">Str<tspan x="183.823px 218.24px 242.157px " y="332.324px 332.324px 332.324px ">até</tspan>gies publiques</text><text x="100.582px" y="423.99px" style="font-family:'Montserrat-Light', 'Montserrat';font-weight:300;font-size:41.667px;">- Aménagement urbain</text><text x="100.582px" y="465.657px" style="font-family:'Montserrat-Light', 'Montserrat';font-weight:300;font-size:41.667px;">- Dé<tspan x="184.04px 203.79px " y="465.657px 465.657px ">ve</tspan>loppement éc<tspan x="515.832px " y="465.657px ">o</tspan>nomique</text><text x="100.582px" y="507.324px" style="font-family:'Montserrat-Light', 'Montserrat';font-weight:300;font-size:41.667px;">- Mobilit<tspan x="268.915px " y="507.324px ">é</tspan></text></g><g transform="matrix(0.24,0,0,0.24,638.801,115.775)"><text x="262.878px" y="332.324px" style="font-family:'Montserrat-Medium', 'Montserrat';font-weight:500;font-size:58.333px;">V<tspan x="300.503px " y="332.324px ">o</tspan>lont<tspan x="454.153px " y="332.324px ">é</tspan> politique</text><text x="371.087px" y="415.657px" style="font-family:'Montserrat-Light', 'Montserrat';font-weight:300;font-size:41.667px;">- Message politique</text><text x="512.795px" y="457.324px" style="font-family:'Montserrat-Light', 'Montserrat';font-weight:300;font-size:41.667px;">- Elu mot<tspan x="701.087px " y="457.324px ">e</tspan>ur</text></g><g transform="matrix(0.24,0,0,0.24,354.129,587.298)"><text x="100.582px" y="332.324px" style="font-family:'Montserrat-Medium', 'Montserrat';font-weight:500;font-size:58.333px;">Opportunit<tspan x="429.582px " y="332.324px ">é</tspan>s ﬁnancières</text><text x="100.582px" y="415.657px" style="font-family:'Montserrat-Light', 'Montserrat';font-weight:300;font-size:41.667px;">- Sub<tspan x="206.79px 226.54px " y="415.657px 415.657px ">ve</tspan>ntion</text><text x="100.582px" y="457.324px" style="font-family:'Montserrat-Light', 'Montserrat';font-weight:300;font-size:41.667px;">- Appel à projets</text></g><g transform="matrix(0.24,0,0,0.24,613.522,587.298)"><text x="140.011px" y="332.324px" style="font-family:'Montserrat-Medium', 'Montserrat';font-weight:500;font-size:58.333px;">Opportunit<tspan x="469.011px " y="332.324px ">é</tspan>s t<tspan x="569.869px " y="332.324px ">e</tspan>chniques</text><text x="462.544px" y="415.657px" style="font-family:'Montserrat-Light', 'Montserrat';font-weight:300;font-size:41.667px;">- A<tspan x="517.627px 539.919px 562.211px " y="415.657px 415.657px 415.657px ">cco</tspan>mpagnement</text><text x="716.586px" y="457.324px" style="font-family:'Montserrat-Light', 'Montserrat';font-weight:300;font-size:41.667px;">- A<tspan x="771.669px " y="457.324px ">u</tspan>tres</text></g><circle cx="588.564" cy="442.035" r="10.454"/><g><path d="M610.744,421.145l155.576,-155.576" style="fill:none;stroke:#000;stroke-width:0.88px;"/><path d="M607.396,418.181l7.042,7.041" style="fill:none;stroke:#000;stroke-width:0.88px;"/><path d="M635.586,389.991l7.041,7.042" style="fill:none;stroke:#000;stroke-width:0.88px;"/><path d="M664.169,361.408l7.041,7.042" style="fill:none;stroke:#000;stroke-width:0.88px;"/><path d="M692.752,332.825l7.042,7.041" style="fill:none;stroke:#000;stroke-width:0.88px;"/><path d="M721.335,304.241l7.042,7.042" style="fill:none;stroke:#000;stroke-width:0.88px;"/><path d="M749.941,275.636l7.042,7.042" style="fill:none;stroke:#000;stroke-width:0.88px;"/><path d="M766.845,271.189l0,-6.307l-6.308,0" style="fill:none;stroke:#000;stroke-width:0.88px;"/><g transform="matrix(0.707107,-0.707107,0.707107,0.707107,-274.082,136.575)"><text x="421.67px" y="816.238px" style="font-family:'Montserrat-Regular', 'Montserrat';font-size:7.764px;fill:#a0a0a0;">0</text></g><g transform="matrix(0.707107,-0.707107,0.707107,0.707107,-244.847,148.684)"><text x="450.904px" y="787.003px" style="font-family:'Montserrat-Regular', 'Montserrat';font-size:7.764px;fill:#a0a0a0;">1</text></g><g transform="matrix(0.707107,-0.707107,0.707107,0.707107,-216.75,160.213)"><text x="478.869px" y="758.851px" style="font-family:'Montserrat-Regular', 'Montserrat';font-size:7.764px;fill:#a0a0a0;">2</text></g><g transform="matrix(0.707107,-0.707107,0.707107,0.707107,-188.315,172.101)"><text x="507.436px" y="730.471px" style="font-family:'Montserrat-Regular', 'Montserrat';font-size:7.764px;fill:#a0a0a0;">3</text></g><g transform="matrix(0.707107,-0.707107,0.707107,0.707107,-159.912,183.866)"><text x="535.84px" y="702.068px" style="font-family:'Montserrat-Regular', 'Montserrat';font-size:7.764px;fill:#a0a0a0;">4</text></g><g transform="matrix(0.707107,-0.707107,0.707107,0.707107,-131.019,195.833)"><text x="564.733px" y="673.175px" style="font-family:'Montserrat-Regular', 'Montserrat';font-size:7.764px;fill:#a0a0a0;">5</text></g></g><g><path d="M610.646,466.139l155.576,155.576" style="fill:none;stroke:#000;stroke-width:0.88px;"/><path d="M613.611,462.791l-7.042,7.042" style="fill:none;stroke:#000;stroke-width:0.88px;"/><path d="M641.801,490.98l-7.042,7.042" style="fill:none;stroke:#000;stroke-width:0.88px;"/><path d="M670.384,519.564l-7.042,7.041" style="fill:none;stroke:#000;stroke-width:0.88px;"/><path d="M698.967,548.147l-7.042,7.042" style="fill:none;stroke:#000;stroke-width:0.88px;"/><path d="M727.55,576.73l-7.041,7.042" style="fill:none;stroke:#000;stroke-width:0.88px;"/><path d="M756.156,605.336l-7.042,7.041" style="fill:none;stroke:#000;stroke-width:0.88px;"/><path d="M760.603,622.24l6.307,0l0,-6.308" style="fill:none;stroke:#000;stroke-width:0.88px;"/><g transform="matrix(0.707107,0.707107,-0.707107,0.707107,102.722,-481.563)"><text x="1026.51px" y="300.319px" style="font-family:'Montserrat-Regular', 'Montserrat';font-size:7.764px;fill:#a0a0a0;">0</text></g><g transform="matrix(0.707107,0.707107,-0.707107,0.707107,131.956,-493.672)"><text x="1055.74px" y="329.553px" style="font-family:'Montserrat-Regular', 'Montserrat';font-size:7.764px;fill:#a0a0a0;">1</text></g><g transform="matrix(0.707107,0.707107,-0.707107,0.707107,159.976,-505.387)"><text x="1083.89px" y="357.518px" style="font-family:'Montserrat-Regular', 'Montserrat';font-size:7.764px;fill:#a0a0a0;">2</text></g><g transform="matrix(0.707107,0.707107,-0.707107,0.707107,188.488,-517.088)"><text x="1112.28px" y="386.085px" style="font-family:'Montserrat-Regular', 'Montserrat';font-size:7.764px;fill:#a0a0a0;">3</text></g><g transform="matrix(0.707107,0.707107,-0.707107,0.707107,216.891,-528.853)"><text x="1140.68px" y="414.488px" style="font-family:'Montserrat-Regular', 'Montserrat';font-size:7.764px;fill:#a0a0a0;">4</text></g><g transform="matrix(0.707107,0.707107,-0.707107,0.707107,245.784,-540.821)"><text x="1169.57px" y="443.381px" style="font-family:'Montserrat-Regular', 'Montserrat';font-size:7.764px;fill:#a0a0a0;">5</text></g></g><g><path d="M568.154,462.869l-155.576,155.576" style="fill:none;stroke:#000;stroke-width:0.88px;"/><path d="M571.502,465.834l-7.042,-7.042" style="fill:none;stroke:#000;stroke-width:0.88px;"/><path d="M543.312,494.023l-7.042,-7.041" style="fill:none;stroke:#000;stroke-width:0.88px;"/><path d="M514.729,522.607l-7.042,-7.042" style="fill:none;stroke:#000;stroke-width:0.88px;"/><path d="M486.145,551.19l-7.041,-7.042" style="fill:none;stroke:#000;stroke-width:0.88px;"/><path d="M457.562,579.773l-7.042,-7.042" style="fill:none;stroke:#000;stroke-width:0.88px;"/><path d="M428.957,608.379l-7.042,-7.042" style="fill:none;stroke:#000;stroke-width:0.88px;"/><path d="M412.053,612.825l0,6.308l6.307,0" style="fill:none;stroke:#000;stroke-width:0.88px;"/><g transform="matrix(-0.707107,0.707107,-0.707107,-0.707107,2307.88,13.8087)"><text x="1544.93px" y="901.985px" style="font-family:'Montserrat-Regular', 'Montserrat';font-size:7.764px;fill:#a0a0a0;">0</text></g><g transform="matrix(-0.707107,0.707107,-0.707107,-0.707107,2278.64,84.3866)"><text x="1515.69px" y="931.219px" style="font-family:'Montserrat-Regular', 'Montserrat';font-size:7.764px;fill:#a0a0a0;">1</text></g><g transform="matrix(-0.707107,0.707107,-0.707107,-0.707107,2250.81,152.219)"><text x="1487.73px" y="959.371px" style="font-family:'Montserrat-Regular', 'Montserrat';font-size:7.764px;fill:#a0a0a0;">2</text></g><g transform="matrix(-0.707107,0.707107,-0.707107,-0.707107,2222.11,220.867)"><text x="1459.16px" y="987.751px" style="font-family:'Montserrat-Regular', 'Montserrat';font-size:7.764px;fill:#a0a0a0;">3</text></g><g transform="matrix(-0.707107,0.707107,-0.707107,-0.707107,2193.71,289.439)"><text x="1430.76px" y="1016.15px" style="font-family:'Montserrat-Regular', 'Montserrat';font-size:7.764px;fill:#a0a0a0;">4</text></g><g transform="matrix(-0.707107,0.707107,-0.707107,-0.707107,2164.81,359.192)"><text x="1401.87px" y="1045.05px" style="font-family:'Montserrat-Regular', 'Montserrat';font-size:7.764px;fill:#a0a0a0;">5</text></g></g><g><path d="M567.033,420.955l-155.576,-155.576" style="fill:none;stroke:#000;stroke-width:0.88px;"/><path d="M564.069,424.303l7.041,-7.042" style="fill:none;stroke:#000;stroke-width:0.88px;"/><path d="M535.879,396.113l7.042,-7.041" style="fill:none;stroke:#000;stroke-width:0.88px;"/><path d="M507.296,367.53l7.042,-7.042" style="fill:none;stroke:#000;stroke-width:0.88px;"/><path d="M478.713,338.947l7.041,-7.042" style="fill:none;stroke:#000;stroke-width:0.88px;"/><path d="M450.129,310.363l7.042,-7.041" style="fill:none;stroke:#000;stroke-width:0.88px;"/><path d="M421.524,281.758l7.042,-7.042" style="fill:none;stroke:#000;stroke-width:0.88px;"/><path d="M417.077,264.854l-6.307,0l0,6.307" style="fill:none;stroke:#000;stroke-width:0.88px;"/><g transform="matrix(-0.707107,-0.707107,0.707107,-0.707107,220.56,2099.12)"><text x="938.872px" y="1420.98px" style="font-family:'Montserrat-Regular', 'Montserrat';font-size:7.764px;fill:#a0a0a0;">0</text></g><g transform="matrix(-0.707107,-0.707107,0.707107,-0.707107,191.326,2028.54)"><text x="909.637px" y="1391.75px" style="font-family:'Montserrat-Regular', 'Montserrat';font-size:7.764px;fill:#a0a0a0;">1</text></g><g transform="matrix(-0.707107,-0.707107,0.707107,-0.707107,163.042,1960.89)"><text x="881.486px" y="1363.78px" style="font-family:'Montserrat-Regular', 'Montserrat';font-size:7.764px;fill:#a0a0a0;">2</text></g><g transform="matrix(-0.707107,-0.707107,0.707107,-0.707107,134.794,1892.06)"><text x="853.105px" y="1335.22px" style="font-family:'Montserrat-Regular', 'Montserrat';font-size:7.764px;fill:#a0a0a0;">3</text></g><g transform="matrix(-0.707107,-0.707107,0.707107,-0.707107,106.391,1823.49)"><text x="824.702px" y="1306.81px" style="font-family:'Montserrat-Regular', 'Montserrat';font-size:7.764px;fill:#a0a0a0;">4</text></g><g transform="matrix(-0.707107,-0.707107,0.707107,-0.707107,77.4978,1753.73)"><text x="795.809px" y="1277.92px" style="font-family:'Montserrat-Regular', 'Montserrat';font-size:7.764px;fill:#a0a0a0;">5</text></g></g><path d="M1088.7,243.202c0,-29.895 -24.271,-54.165 -54.165,-54.165l-108.329,0c-12.931,0.641 -91.447,0.703 -91.447,0.703c0,0 37.834,37.69 37.282,53.462l0,108.329c0,29.894 24.27,54.165 54.165,54.165l108.329,0c29.894,0 54.165,-24.271 54.165,-54.165l0,-108.329Z" style="fill:none;stroke:#000;stroke-width:0.88px;"/><path d="M893.85,246.57l167.417,0" style="fill:none;stroke:#000;stroke-width:0.75px;"/><path d="M893.85,274.707l167.417,0" style="fill:none;stroke:#000;stroke-width:0.75px;"/><path d="M893.85,304.251l167.417,0" style="fill:none;stroke:#000;stroke-width:0.75px;"/><path d="M893.85,333.796l167.417,0" style="fill:none;stroke:#000;stroke-width:0.75px;"/><path d="M893.85,362.637l167.417,0" style="fill:none;stroke:#000;stroke-width:0.75px;"/><g transform="matrix(0.999994,-0.00354677,0.00354677,0.999994,-1.46336,3.15272)"><text x="949.123px" y="480.751px" style="font-family:'ArialMT', 'Arial', sans-serif;font-size:10.824px;">on a repéré ...</text></g><path d="M1088.7,625.212c0,29.894 -24.271,54.164 -54.165,54.164l-108.329,0c-12.931,-0.64 -91.447,-0.703 -91.447,-0.703c0,0 37.834,-37.689 37.282,-53.461l0,-108.33c0,-29.894 24.27,-54.164 54.165,-54.164l108.329,0c29.894,0 54.165,24.27 54.165,54.164l0,108.33Z" style="fill:none;stroke:#000;stroke-width:0.88px;"/><path d="M893.85,520.251l167.417,0" style="fill:none;stroke:#000;stroke-width:0.75px;"/><path d="M893.85,548.388l167.417,0" style="fill:none;stroke:#000;stroke-width:0.75px;"/><path d="M893.85,577.932l167.417,0" style="fill:none;stroke:#000;stroke-width:0.75px;"/><path d="M893.85,607.477l167.417,0" style="fill:none;stroke:#000;stroke-width:0.75px;"/><path d="M893.85,636.318l167.417,0" style="fill:none;stroke:#000;stroke-width:0.75px;"/><g transform="matrix(0.999994,-0.00354677,0.00354677,0.999994,-0.497527,0.415337)"><text x="177.812px" y="207.07px" style="font-family:'ArialMT', 'Arial', sans-serif;font-size:10.824px;">on a repéré ...</text></g><path d="M101.85,243.202c0,-29.895 24.27,-54.165 54.164,-54.165l108.33,0c12.93,0.641 91.446,0.703 91.446,0.703c0,0 -37.834,37.69 -37.282,53.462l0,108.329c0,29.894 -24.27,54.165 -54.164,54.165l-108.33,0c-29.894,0 -54.164,-24.271 -54.164,-54.165l0,-108.329Z" style="fill:none;stroke:#000;stroke-width:0.88px;"/><path d="M124.938,246.57l167.418,0" style="fill:none;stroke:#000;stroke-width:0.75px;"/><path d="M124.938,274.707l167.418,0" style="fill:none;stroke:#000;stroke-width:0.75px;"/><path d="M124.938,304.251l167.418,0" style="fill:none;stroke:#000;stroke-width:0.75px;"/><path d="M124.938,333.796l167.418,0" style="fill:none;stroke:#000;stroke-width:0.75px;"/><path d="M124.938,362.637l167.418,0" style="fill:none;stroke:#000;stroke-width:0.75px;"/><g transform="matrix(0.999994,-0.00354677,0.00354677,0.999994,-1.46821,0.417058)"><text x="177.812px" y="480.751px" style="font-family:'ArialMT', 'Arial', sans-serif;font-size:10.824px;">on a repéré ...</text></g><path d="M101.85,625.212c0,29.894 24.27,54.164 54.164,54.164l108.33,0c12.93,-0.64 91.446,-0.703 91.446,-0.703c0,0 -37.834,-37.689 -37.282,-53.461l0,-108.33c0,-29.894 -24.27,-54.164 -54.164,-54.164l-108.33,0c-29.894,0 -54.164,24.27 -54.164,54.164l0,108.33Z" style="fill:none;stroke:#000;stroke-width:0.88px;"/><path d="M124.938,520.251l167.418,0" style="fill:none;stroke:#000;stroke-width:0.75px;"/><path d="M124.938,548.388l167.418,0" style="fill:none;stroke:#000;stroke-width:0.75px;"/><path d="M124.938,577.932l167.418,0" style="fill:none;stroke:#000;stroke-width:0.75px;"/><path d="M124.938,607.477l167.418,0" style="fill:none;stroke:#000;stroke-width:0.75px;"/><path d="M124.938,636.318l167.418,0" style="fill:none;stroke:#000;stroke-width:0.75px;"/></g></svg>